<svg xmlns="http://www.w3.org/2000/svg" width="26.453" height="16.915" viewBox="0 0 26.453 16.915">
  <g id="Group_101" data-name="Group 101" transform="translate(-50 -375.085)">
    <path id="ic_person_24px" d="M12,12A4,4,0,1,0,8,8,4,4,0,0,0,12,12Zm0,2c-2.67,0-8,1.34-8,4v2H20V18C20,15.34,14.67,14,12,14Z" transform="translate(46 372)" fill="#fff"/>
    <path id="ic_settings_24px" d="M14.136,9.593a4.768,4.768,0,0,0,0-1.355L15.6,7.1a.349.349,0,0,0,.083-.443L14.3,4.261a.348.348,0,0,0-.422-.152L12.152,4.8a5.052,5.052,0,0,0-1.169-.678L10.72,2.29A.337.337,0,0,0,10.382,2H7.616a.337.337,0,0,0-.339.29L7.014,4.123A5.313,5.313,0,0,0,5.845,4.8L4.123,4.109a.337.337,0,0,0-.422.152L2.319,6.654A.341.341,0,0,0,2.4,7.1L3.861,8.237a5.484,5.484,0,0,0-.048.678,5.484,5.484,0,0,0,.048.678L2.4,10.734a.349.349,0,0,0-.083.443L3.7,13.569a.348.348,0,0,0,.422.152l1.722-.691a5.052,5.052,0,0,0,1.169.678l.263,1.832a.337.337,0,0,0,.339.29h2.766a.337.337,0,0,0,.339-.29l.263-1.832a5.313,5.313,0,0,0,1.169-.678l1.722.691a.337.337,0,0,0,.422-.152l1.383-2.393a.349.349,0,0,0-.083-.443ZM9,11.335a2.42,2.42,0,1,1,2.42-2.42A2.423,2.423,0,0,1,9,11.335Z" transform="translate(60.729 373.085)" fill="#fff"/>
  </g>
</svg>
