<svg xmlns="http://www.w3.org/2000/svg" width="67.988" height="82.131" viewBox="0 0 67.988 82.131">
  <g id="Group_91" data-name="Group 91" transform="translate(-842.082 -593.848)">
    <g id="Group_70" data-name="Group 70" transform="translate(842.082 593.848)">
      <path id="Path_44" data-name="Path 44" d="M19209.707,731.235h49.6l18.18,16.735v65.3h-67.781Z" transform="translate(-19209.707 -731.135)" fill="#b9b9b9"/>
      <path id="Path_45" data-name="Path 45" d="M0,0,1.085,18.729l17.3-2.343Z" transform="matrix(1, 0.017, -0.017, 1, 49.601, 0)" fill="#888"/>
    </g>
    <path id="Path_51" data-name="Path 51" d="M2.852,0H1.4L.211-3.141h-4.75L-5.656,0H-7.117l4.3-11.2h1.359ZM-.219-4.32-1.977-9.094a4.571,4.571,0,0,1-.172-.75H-2.18a4.185,4.185,0,0,1-.18.75L-4.1-4.32ZM5.813,0H4.5V-11.2H5.813Z" transform="translate(876 660)" fill="#fff"/>
  </g>
</svg>
