<svg xmlns="http://www.w3.org/2000/svg" width="67.988" height="82.131" viewBox="0 0 67.988 82.131">
  <g id="Group_100" data-name="Group 100" transform="translate(-850.207 -880.848)">
    <g id="Group_78" data-name="Group 78" transform="translate(850.207 880.848)">
      <path id="Path_44" data-name="Path 44" d="M19209.707,731.235h49.6l18.18,16.735v65.3h-67.781Z" transform="translate(-19209.707 -731.135)" fill="#b9b9b9"/>
      <path id="Path_45" data-name="Path 45" d="M0,0,1.085,18.729l17.3-2.343Z" transform="matrix(1, 0.017, -0.017, 1, 49.601, 0)" fill="#888"/>
    </g>
    <path id="Path_57" data-name="Path 57" d="M-5.371,0h-5.937V-11.2h5.688v1.188H-10v3.727h4.047v1.18H-10v3.922h4.625ZM-1.9-4.234V0H-3.215V-11.2H-.137a4.063,4.063,0,0,1,2.785.875,3.124,3.124,0,0,1,.988,2.469,3.4,3.4,0,0,1-1.1,2.609A4.194,4.194,0,0,1-.426-4.234Zm0-5.781v4.594H-.527a3.074,3.074,0,0,0,2.074-.621A2.2,2.2,0,0,0,2.262-7.8q0-2.219-2.625-2.219ZM5.223-.453V-2a3,3,0,0,0,.637.422,5.159,5.159,0,0,0,.781.316,6.219,6.219,0,0,0,.824.2,4.6,4.6,0,0,0,.766.07,3,3,0,0,0,1.809-.449,1.52,1.52,0,0,0,.6-1.293,1.518,1.518,0,0,0-.2-.789,2.244,2.244,0,0,0-.551-.613,5.465,5.465,0,0,0-.832-.531Q8.574-4.922,8.02-5.2q-.586-.3-1.094-.6a4.74,4.74,0,0,1-.883-.672,2.8,2.8,0,0,1-.59-.832A2.575,2.575,0,0,1,5.238-8.4,2.563,2.563,0,0,1,5.574-9.73a2.881,2.881,0,0,1,.883-.934A4,4,0,0,1,7.7-11.211a5.706,5.706,0,0,1,1.426-.18,5.464,5.464,0,0,1,2.414.4v1.477A4.376,4.376,0,0,0,9-10.2a4.189,4.189,0,0,0-.859.09,2.428,2.428,0,0,0-.766.293,1.7,1.7,0,0,0-.547.523,1.389,1.389,0,0,0-.211.781,1.608,1.608,0,0,0,.16.742,1.819,1.819,0,0,0,.473.57,4.708,4.708,0,0,0,.762.5q.449.242,1.035.531.6.3,1.141.625a5.214,5.214,0,0,1,.945.727,3.229,3.229,0,0,1,.645.883,2.482,2.482,0,0,1,.238,1.109,2.813,2.813,0,0,1-.324,1.4,2.661,2.661,0,0,1-.875.934,3.822,3.822,0,0,1-1.27.52,6.953,6.953,0,0,1-1.516.16A6.176,6.176,0,0,1,7.371.145Q6.98.1,6.574.02a6.5,6.5,0,0,1-.77-.2A2.4,2.4,0,0,1,5.223-.453Z" transform="translate(882 947)" fill="#fff"/>
  </g>
</svg>
