<svg xmlns="http://www.w3.org/2000/svg" width="26.902" height="34.937" viewBox="0 0 26.902 34.937">
  <path id="Path_50" data-name="Path 50" d="M26-16.064H4.761V-32.1h12.6v8.643H26ZM19.189-14.4h1.538l.757,2.612q.391,1.416.537,2.222h.024q.244-1.05.562-2.173l.806-2.661H24.9L22.8-8.2H21.167ZM15.479-11.67l.439-.659L17.31-14.4h1.733l-2.051,2.637L19.141-8.2H17.5l-1.514-2.686-.537.659V-8.2H14.087v-6.2h1.367v2.734ZM6.177-8.2l.391-6.2H8.423l.61,2.075a20.9,20.9,0,0,1,.513,2.222h.049q.269-1.221.586-2.222L10.84-14.4h1.831l.342,6.2H11.646l-.1-2.368q-.073-1.465-.073-2.539-.317,1.221-.708,2.393L10.01-8.3H8.936l-.684-2.393q-.317-1.172-.562-2.417-.049,1.367-.1,2.563L7.471-8.2ZM26-2.832H4.761V-6.909H26ZM19.482-30.371l4.639,4.785H19.482Zm-.439-4.565H1.929V0h26.9V-24.756Z" transform="translate(-1.93 34.937)" fill="#b9b9b9"/>
</svg>
