<svg xmlns="http://www.w3.org/2000/svg" width="26.855" height="34.863" viewBox="0 0 26.855 34.863">
  <path id="Path_48" data-name="Path 48" d="M22-12.451q0-.9-1.1-.9a2.413,2.413,0,0,0-.586.049v1.831a3.448,3.448,0,0,0,.464.024Q22-11.45,22-12.451Zm3.979-3.589H4.785V-32.031H17.358v8.618h8.618ZM18.921-8.179v-6.1a12.3,12.3,0,0,1,1.9-.122,3.1,3.1,0,0,1,1.9.488,1.72,1.72,0,0,1,.635,1.416,1.963,1.963,0,0,1-.562,1.489,2.9,2.9,0,0,1-2,.635,3.691,3.691,0,0,1-.488-.024v2.222Zm-3.1-1.074a2.189,2.189,0,0,0,.684-.073v-1.318h-.952v-1.074h2.295v3.247a6.524,6.524,0,0,1-2.075.342,3.524,3.524,0,0,1-2.515-.83,2.987,2.987,0,0,1-.854-2.246,3.021,3.021,0,0,1,1-2.393,3.748,3.748,0,0,1,2.515-.83,4.316,4.316,0,0,1,1.733.293l-.293,1.123a3.448,3.448,0,0,0-1.44-.269,2.088,2.088,0,0,0-1.465.513,1.873,1.873,0,0,0-.586,1.489A2.013,2.013,0,0,0,14.4-9.79,1.914,1.914,0,0,0,15.82-9.253Zm-7.5-1.587v-1h.562q1.05,0,1.05-.684,0-.635-.879-.635a2.31,2.31,0,0,0-1.245.366l-.293-1a3.334,3.334,0,0,1,1.855-.464,2.246,2.246,0,0,1,1.465.439,1.3,1.3,0,0,1,.513,1.05,1.394,1.394,0,0,1-1.1,1.392v.024a1.352,1.352,0,0,1,1.294,1.44,1.6,1.6,0,0,1-.659,1.318,2.829,2.829,0,0,1-1.782.513A3.267,3.267,0,0,1,7.349-8.5l.269-1.05a2.824,2.824,0,0,0,1.392.366q1.1,0,1.1-.806,0-.854-1.2-.854ZM25.977-2.832H4.785V-6.885H25.977Zm-6.494-27.49L24.1-25.537H19.482Zm-.464-4.541H1.953V0H28.809V-24.707Z" transform="translate(-1.953 34.863)" fill="#f1880e"/>
</svg>
