<svg xmlns="http://www.w3.org/2000/svg" width="26.906" height="34.937" viewBox="0 0 26.906 34.937">
  <path id="Path_46" data-name="Path 46" d="M20.9-10.693l-.024.024h1.367v-1.343q0-.342.024-1.1h-.024q-.488.977-.562,1.1Zm5.151-5.371H4.81V-32.1h12.6v8.643H26.05Zm-1.782,5.4v1.05H23.56V-8.2H22.241V-9.619H19.58v-.928l2.271-3.638H23.56v3.516ZM14.648-8.2v-6.1a10.283,10.283,0,0,1,1.9-.146,2.881,2.881,0,0,1,1.88.513,1.694,1.694,0,0,1,.659,1.416,1.963,1.963,0,0,1-.562,1.489A2.936,2.936,0,0,1,16.5-10.4a3.448,3.448,0,0,1-.464-.024V-8.2Zm-7.91,0,.391-6.2h1.88l.586,2.075q.317,1.1.537,2.222h.024q.293-1.172.61-2.222L11.4-14.4h1.831l.342,6.2H12.207l-.1-2.368q-.049-1.489-.049-2.539h-.024q-.317,1.221-.684,2.393L10.6-8.3H9.5l-.659-2.393q-.317-1.147-.562-2.417H8.252q-.049,1.44-.1,2.563L8.032-8.2ZM26.05-2.832H4.81V-6.909H26.05ZM19.531-30.371l4.639,4.785H19.531Zm-.439-4.565H1.978V0h26.9V-24.756ZM17.7-12.476q0-.9-1.074-.9a2.413,2.413,0,0,0-.586.049V-11.5a3.13,3.13,0,0,0,.464.024Q17.7-11.475,17.7-12.476Z" transform="translate(-1.977 34.937)" fill="#0e69f1"/>
</svg>
