<svg xmlns="http://www.w3.org/2000/svg" width="26.904" height="34.937" viewBox="0 0 26.904 34.937">
  <path id="Path_49" data-name="Path 49" d="M16.895-12.476q0-.9-1.074-.9a2.413,2.413,0,0,0-.586.049V-11.5a3.13,3.13,0,0,0,.464.024Q16.895-11.475,16.895-12.476Zm8.936-3.589H4.59V-32.1h12.6v8.643H25.83ZM22.314-9.277A2.189,2.189,0,0,0,23-9.351v-1.318h-.952v-1.074h2.319V-8.5a6.13,6.13,0,0,1-2.075.366,3.471,3.471,0,0,1-2.515-.83A3.022,3.022,0,0,1,18.9-11.23a3.021,3.021,0,0,1,1-2.393,3.785,3.785,0,0,1,2.539-.83,4.137,4.137,0,0,1,1.709.293l-.293,1.123a3.28,3.28,0,0,0-1.416-.269,2.189,2.189,0,0,0-1.489.488,1.95,1.95,0,0,0-.586,1.514,1.963,1.963,0,0,0,.562,1.489A1.833,1.833,0,0,0,22.314-9.277ZM13.843-8.2v-6.1a10.283,10.283,0,0,1,1.9-.146,2.987,2.987,0,0,1,1.9.513,1.72,1.72,0,0,1,.635,1.416,1.963,1.963,0,0,1-.562,1.489A2.936,2.936,0,0,1,15.7-10.4a3.448,3.448,0,0,1-.464-.024V-8.2Zm-7.91,0,.391-6.2H8.2l.61,2.075q.293,1.1.513,2.222h.049q.269-1.172.586-2.222L10.6-14.4h1.855l.317,6.2H11.4l-.1-2.368q-.049-1.489-.049-2.539H11.23q-.317,1.221-.684,2.393L9.79-8.3h-1.1l-.659-2.393q-.317-1.147-.562-2.417H7.446q-.049,1.44-.1,2.563L7.227-8.2Zm19.9,5.371H4.59V-6.909H25.83ZM19.312-30.371l4.639,4.785H19.312Zm-.439-4.565H1.758V0h26.9V-24.756Z" transform="translate(-1.758 34.937)" fill="#0e69f1"/>
</svg>
