<svg xmlns="http://www.w3.org/2000/svg" width="26.906" height="34.937" viewBox="0 0 26.906 34.937">
  <path id="Path_47" data-name="Path 47" d="M26.147-16.064H4.907V-32.1H17.5v8.643h8.643ZM20.361-14.4h1.392v6.2H20.361Zm-6.372,0h1.538l.757,2.612q.391,1.392.537,2.222h.049q.22-1.05.562-2.173l.781-2.661H19.7L17.6-8.2H15.967Zm.391,6.2H12.866L12.4-9.79H10.62L10.181-8.2H8.74l1.88-6.2h1.831ZM26.147-2.832H4.907V-6.909h21.24ZM19.629-30.371l4.639,4.785H19.629Zm-.439-4.565H2.075V0h26.9V-24.756ZM11.475-13.354q-.22.977-.293,1.2l-.366,1.318h1.367l-.391-1.318q.049.122-.293-1.2Z" transform="translate(-2.074 34.937)" fill="#b9b9b9"/>
</svg>
