<svg xmlns="http://www.w3.org/2000/svg" width="39.746" height="33.132" viewBox="0 0 39.746 33.132">
  <path id="Path_46" data-name="Path 46" d="M-20.459-11.3A2.108,2.108,0,0,0-19.8-9.763a2.163,2.163,0,0,0,1.587.659H12.939a2.652,2.652,0,0,0,1.709-.635,2.46,2.46,0,0,0,.928-1.562l3.662-20.142a2.311,2.311,0,0,0,.049-.444,1.646,1.646,0,0,0-.391-1.086,1.756,1.756,0,0,0-1.416-.641H-9.375a1.288,1.288,0,0,0-.83.321,1.352,1.352,0,0,0-.488.765l-2.93,16.184-.049.3a4,4,0,0,1-1.147,2.122,3.839,3.839,0,0,1-2.124,1.085l3.613-20.181a3.871,3.871,0,0,1,1.392-2.344,3.891,3.891,0,0,1,2.563-.962H1.367L.2-40.173A2.633,2.633,0,0,0-.879-41.65a3,3,0,0,0-1.758-.586H-18.213a2.221,2.221,0,0,0-1.587.627,2.045,2.045,0,0,0-.659,1.543V-11.3Z" transform="translate(20.459 42.236)" fill="#0e69f1"/>
</svg>
