<svg xmlns="http://www.w3.org/2000/svg" width="179" height="179" viewBox="0 0 179 179">
  <g id="Group_89" data-name="Group 89" transform="translate(-863 -348)">
    <circle id="Ellipse_15" data-name="Ellipse 15" cx="89.5" cy="89.5" r="89.5" transform="translate(863 348)" fill="#f3f2f2"/>
    <g id="Group_88" data-name="Group 88">
      <text id="_" data-name="?" transform="translate(999 431)" fill="#f1880e" font-size="68" font-family="SegoeUI-Bold, Segoe UI" font-weight="700"><tspan x="-14.892" y="0">?</tspan></text>
      <g id="Group_87" data-name="Group 87">
        <path id="ic_lock_24px" d="M72.25,35.125H67.375v-9.75a24.375,24.375,0,0,0-48.75,0v9.75H13.75A9.779,9.779,0,0,0,4,44.875v48.75a9.779,9.779,0,0,0,9.75,9.75h58.5A9.779,9.779,0,0,0,82,93.625V44.875A9.779,9.779,0,0,0,72.25,35.125ZM43,79a9.75,9.75,0,1,1,9.75-9.75A9.779,9.779,0,0,1,43,79ZM58.113,35.125H27.887v-9.75a15.113,15.113,0,0,1,30.225,0Z" transform="translate(902 380.313)" fill="#f1880e"/>
        <rect id="Rectangle_182" data-name="Rectangle 182" width="8" height="18" rx="4" transform="translate(941 448)" fill="#f3f2f2"/>
      </g>
    </g>
  </g>
</svg>
