<svg xmlns="http://www.w3.org/2000/svg" width="67.989" height="82.131" viewBox="0 0 67.989 82.131">
  <g id="Group_89" data-name="Group 89" transform="translate(-679.477 -639)">
    <g id="Group_68" data-name="Group 68" transform="translate(679.477 639)">
      <path id="Path_44" data-name="Path 44" d="M19209.707,731.235h49.6l18.18,16.735v65.3h-67.781Z" transform="translate(-19209.707 -731.135)" fill="#0e69f1"/>
      <path id="Path_45" data-name="Path 45" d="M0,0,1.085,18.729l17.3-2.343Z" transform="matrix(1, 0.017, -0.017, 1, 49.602, 0)" fill="#0c53bc"/>
    </g>
    <path id="Path_49" data-name="Path 49" d="M-1.68-.766A7.492,7.492,0,0,1-5.43.188,5.124,5.124,0,0,1-9.309-1.359a5.674,5.674,0,0,1-1.48-4.094,5.826,5.826,0,0,1,1.645-4.27,5.606,5.606,0,0,1,4.168-1.668,7.093,7.093,0,0,1,3.07.594v1.453A5.9,5.9,0,0,0-5.125-10.2a4.021,4.021,0,0,0-3.086,1.3,4.743,4.743,0,0,0-1.2,3.359A4.746,4.746,0,0,0-8.3-2.207,3.916,3.916,0,0,0-5.266-.992a4.684,4.684,0,0,0,2.273-.523V-4.656H-5.445V-5.844H-1.68ZM2.234,0H.922V-11.2H2.234Zm8.633-10.016H6.492v3.875h4.047v1.18H6.492V0H5.18V-11.2h5.688Z" transform="translate(712.875 705.152)" fill="#fff"/>
  </g>
</svg>
