<svg width="57" height="57">
  <symbol xmlns="http://www.w3.org/2000/svg" viewBox="0 0 57 57" id="add">
    <g id="Group_212" transform="translate(-1812 -423)">
      <g id="Group_95" transform="translate(75 94)">
        <g id="Ellipse_41" transform="translate(1737 329)" fill="#f3f3f3" stroke="currentColor" stroke-width="2">
          <circle cx="28.5" cy="28.5" r="28.5" stroke="none"></circle>
          <circle cx="28.5" cy="28.5" r="27.5" fill="none"></circle>
        </g>
        <g id="Group_94" transform="translate(1752.967 344.966)">
          <rect id="Rectangle_258" width="25.067" height="3.76" rx="1.88" transform="translate(0 10.653)" fill="currentColor"></rect>
          <rect id="Rectangle_259" width="25.067" height="3.76" rx="1.88" transform="translate(14.413 0) rotate(90)" fill="currentColor"></rect>
        </g>
      </g>
    </g>
  </symbol>
  <symbol xmlns="http://www.w3.org/2000/svg" viewBox="0 0 51.501 60.474" id="search">
    <g id="Group_211" transform="translate(-1594.8 -294)">
      <path id="ic_description_24px" d="M28,2H8.8A4.794,4.794,0,0,0,4.024,6.8L4,45.2A4.794,4.794,0,0,0,8.776,50H37.6a4.814,4.814,0,0,0,4.8-4.8V16.4Zm4.8,38.4H13.6V35.6H32.8Zm0-9.6H13.6V26H32.8Zm-7.2-12V5.6L38.8,18.8Z" transform="translate(1591.8 293)" fill="none" stroke="currentColor" stroke-width="2"></path>
      <g id="Group_99" transform="translate(-15 -7.5)">
        <rect id="Rectangle_261" width="5.317" height="20" rx="2.658" transform="translate(1643.048 348.334) rotate(-47)" fill="currentColor"></rect>
        <g id="Ellipse_44" transform="translate(1633 333)" fill="#f3f3f3" stroke="currentColor" stroke-width="2">
          <circle cx="11" cy="11" r="11" stroke="none"></circle>
          <circle cx="11" cy="11" r="10" fill="none"></circle>
        </g>
      </g>
    </g>
  </symbol>
</svg>