<svg xmlns="http://www.w3.org/2000/svg" width="67.989" height="82.131" viewBox="0 0 67.989 82.131">
  <g id="Group_96" data-name="Group 96" transform="translate(-484 -880.848)">
    <g id="Group_75" data-name="Group 75" transform="translate(484 880.848)">
      <path id="Path_44" data-name="Path 44" d="M19209.707,731.235h49.6l18.18,16.735v65.3h-67.781Z" transform="translate(-19209.707 -731.135)" fill="#f1880e"/>
      <path id="Path_45" data-name="Path 45" d="M0,0,1.085,18.729l17.3-2.343Z" transform="matrix(1, 0.017, -0.017, 1, 49.602, 0)" fill="#ac6007"/>
    </g>
    <path id="Path_53" data-name="Path 53" d="M-10.93,0h-1.312V-5.109h-5.8V0h-1.312V-11.2h1.313v4.914h5.8V-11.2h1.313Zm9.563-10.016H-4.6V0H-5.914V-10.016H-9.141V-11.2h7.773ZM11.813,0h-1.3V-7.516q0-.891.109-2.18h-.031a6.969,6.969,0,0,1-.336,1.086L6.422,0H5.781L1.961-8.547A6.7,6.7,0,0,1,1.625-9.7H1.594q.062.672.063,2.2V0H.391V-11.2H2.125L5.563-3.391a10,10,0,0,1,.516,1.344h.047q.336-.922.539-1.375L10.172-11.2h1.641ZM20.57,0H14.758V-11.2H16.07V-1.187h4.5Z" transform="translate(518 947)" fill="#fff"/>
  </g>
</svg>
