<svg xmlns="http://www.w3.org/2000/svg" width="67.989" height="82.131" viewBox="0 0 67.989 82.131">
  <g id="Group_87" data-name="Group 87" transform="translate(-475.875 -593.848)">
    <g id="Group_66" data-name="Group 66" transform="translate(475.875 593.848)">
      <path id="Path_44" data-name="Path 44" d="M19209.707,731.235h49.6l18.18,16.735v65.3h-67.781Z" transform="translate(-19209.707 -731.135)" fill="#f1880e"/>
      <path id="Path_45" data-name="Path 45" d="M0,0,1.085,18.729l17.3-2.343Z" transform="matrix(1, 0.017, -0.017, 1, 49.602, 0)" fill="#ac6007"/>
    </g>
    <path id="Path_47" data-name="Path 47" d="M-12.535-4.016a5.007,5.007,0,0,1-.844,3.1A2.7,2.7,0,0,1-15.637.188,2.669,2.669,0,0,1-16.715,0V-1.3a1.824,1.824,0,0,0,1.094.3q1.773,0,1.773-3.008v-7.2h1.313Zm4.156-.219V0H-9.691V-11.2h3.078a4.063,4.063,0,0,1,2.785.875A3.124,3.124,0,0,1-2.84-7.859a3.4,3.4,0,0,1-1.1,2.609A4.194,4.194,0,0,1-6.9-4.234Zm0-5.781v4.594H-7A3.074,3.074,0,0,0-4.93-6.043,2.2,2.2,0,0,0-4.215-7.8q0-2.219-2.625-2.219ZM5.207,0H-.73V-11.2H4.957v1.188H.582v3.727H4.629v1.18H.582v3.922H5.207ZM15.738-.766a7.492,7.492,0,0,1-3.75.953A5.124,5.124,0,0,1,8.109-1.359a5.674,5.674,0,0,1-1.48-4.094,5.826,5.826,0,0,1,1.645-4.27,5.606,5.606,0,0,1,4.168-1.668,7.093,7.093,0,0,1,3.07.594v1.453a5.9,5.9,0,0,0-3.219-.859,4.021,4.021,0,0,0-3.086,1.3A4.743,4.743,0,0,0,8-5.547a4.746,4.746,0,0,0,1.117,3.34A3.916,3.916,0,0,0,12.152-.992a4.684,4.684,0,0,0,2.273-.523V-4.656H11.973V-5.844h3.766Z" transform="translate(510 660)" fill="#fff"/>
  </g>
</svg>
