<svg xmlns="http://www.w3.org/2000/svg" width="67.989" height="82.131" viewBox="0 0 67.989 82.131">
  <g id="Group_98" data-name="Group 98" transform="translate(-671.727 -880.848)">
    <g id="Group_76" data-name="Group 76" transform="translate(671.727 880.848)">
      <path id="Path_44" data-name="Path 44" d="M19209.707,731.235h49.6l18.18,16.735v65.3h-67.781Z" transform="translate(-19209.707 -731.135)" fill="#0e69f1"/>
      <path id="Path_45" data-name="Path 45" d="M0,0,1.085,18.729l17.3-2.343Z" transform="matrix(1, 0.017, -0.017, 1, 49.602, 0)" fill="#0c53bc"/>
    </g>
    <path id="Path_55" data-name="Path 55" d="M-2.77-4.016a5.007,5.007,0,0,1-.844,3.1A2.7,2.7,0,0,1-5.871.188,2.669,2.669,0,0,1-6.949,0V-1.3a1.824,1.824,0,0,0,1.094.3Q-4.082-.992-4.082-4v-7.2H-2.77ZM-.449-.453V-2a3,3,0,0,0,.637.422,5.159,5.159,0,0,0,.781.316,6.219,6.219,0,0,0,.824.2,4.6,4.6,0,0,0,.766.07,3,3,0,0,0,1.809-.449,1.52,1.52,0,0,0,.6-1.293,1.518,1.518,0,0,0-.2-.789,2.244,2.244,0,0,0-.551-.613,5.465,5.465,0,0,0-.832-.531Q2.9-4.922,2.348-5.2q-.586-.3-1.094-.6a4.74,4.74,0,0,1-.883-.672,2.8,2.8,0,0,1-.59-.832A2.575,2.575,0,0,1-.434-8.4,2.563,2.563,0,0,1-.1-9.73a2.881,2.881,0,0,1,.883-.934,4,4,0,0,1,1.246-.547,5.706,5.706,0,0,1,1.426-.18,5.464,5.464,0,0,1,2.414.4v1.477A4.376,4.376,0,0,0,3.324-10.2a4.189,4.189,0,0,0-.859.09A2.428,2.428,0,0,0,1.7-9.82a1.7,1.7,0,0,0-.547.523,1.389,1.389,0,0,0-.211.781,1.608,1.608,0,0,0,.16.742,1.819,1.819,0,0,0,.473.57,4.708,4.708,0,0,0,.762.5q.449.242,1.035.531.6.3,1.141.625a5.214,5.214,0,0,1,.945.727,3.229,3.229,0,0,1,.645.883A2.482,2.482,0,0,1,6.34-2.828a2.813,2.813,0,0,1-.324,1.4,2.661,2.661,0,0,1-.875.934,3.822,3.822,0,0,1-1.27.52,6.953,6.953,0,0,1-1.516.16A6.176,6.176,0,0,1,1.7.145Q1.309.1.9.02a6.5,6.5,0,0,1-.77-.2A2.4,2.4,0,0,1-.449-.453Z" transform="translate(706 947)" fill="#fff"/>
  </g>
</svg>
