<svg xmlns="http://www.w3.org/2000/svg" width="318.795" height="143.724" viewBox="0 0 318.795 143.724">
  <g id="Group_109" data-name="Group 109" transform="translate(-19908.936 -2020.481)">
    <g id="Swarm_logo" data-name="Swarm logo" transform="translate(19906 2020.5)">
      <g id="Group_105" data-name="Group 105">
        <path id="Path_65" data-name="Path 65" d="M282.882,50.119s25.643-32.832,16.068-44.2c0,0-13.588-15.7-23.4,6.326C275.551,12.249,267.84,29.805,282.882,50.119Z" fill="#fff" stroke="#23201f" stroke-width="1"/>
        <path id="Path_66" data-name="Path 66" d="M286.486,44.065" fill="#fff"/>
        <path id="Path_67" data-name="Path 67" d="M296.724,43.986s14.741-2.926,15.5,19.465c0,0,1.92,11.163-11.931,5.719,0,0-12.479-4.969-10.9-16.948A9.634,9.634,0,0,1,296.724,43.986Z" fill="#171717"/>
        <path id="Path_68" data-name="Path 68" d="M304.416,51.941s6.273-1.387,4.49,7.989C308.906,59.931,302.9,58.94,304.416,51.941Z" fill="#fff"/>
        <path id="Path_69" data-name="Path 69" d="M306.361,53.573s2.014-.444,1.441,2.563A1.924,1.924,0,0,1,306.361,53.573Z" fill="#010101"/>
        <path id="Path_70" data-name="Path 70" d="M291.009,66.14s-8.916,17.434-30.213,10.7c0,0-16.377-6.537-1.452-20.538,0,0,10.7-8.981,27.208-2.51C286.552,53.789,282.886,63.168,291.009,66.14Z" fill="#231f20"/>
        <path id="Path_71" data-name="Path 71" d="M279.125,51.774s-.891,12.457,6.835,20.58a23,23,0,0,1-5.216,3.588,36.13,36.13,0,0,1-8.334-24.391A29.168,29.168,0,0,1,279.125,51.774Z" fill="#f78f1e"/>
        <path id="Path_72" data-name="Path 72" d="M261.292,54.962a21.987,21.987,0,0,1,3.934-1.808s-.88,18,8.283,25a25.74,25.74,0,0,1-8.948-.33s-6.047-8.008-5.65-21.083A7.77,7.77,0,0,1,261.292,54.962Z" fill="#f78f1e"/>
        <path id="Path_73" data-name="Path 73" d="M246.863,66.7s5.052,1.486,6.637,1.387l.3,2.379S248.546,69.672,246.863,66.7Z" fill="#231f20"/>
        <ellipse id="Ellipse_15" data-name="Ellipse 15" cx="2.558" cy="1.535" rx="2.558" ry="1.535" transform="translate(316.616 33.171)" fill="#23201f"/>
        <ellipse id="Ellipse_16" data-name="Ellipse 16" cx="2.558" cy="1.535" rx="2.558" ry="1.535" transform="translate(309.41 24.86) rotate(-35.804)" fill="#23201f"/>
        <path id="Path_74" data-name="Path 74" d="M310.111,25.69s-8.469,4.722-9.394,17.931c0,0,6.935-8.124,16.113-8.52l-.2-.728A27.4,27.4,0,0,0,301.909,40.8l-.136.117s1.188-9.511,8.783-14.792Z" fill="#23201f"/>
        <path id="Path_75" data-name="Path 75" d="M282.722,50.191s3.17-41.539-11.1-45.7c0,0-20.01-5.547-15.98,18.227C255.646,22.72,258.948,41.6,282.722,50.191Z" fill="#fff" stroke="#23201f" stroke-width="1"/>
        <path id="Path_76" data-name="Path 76" d="M267.173,5.4s7.436,6.8,14.485,29.415C281.659,34.816,282.285,4.221,267.173,5.4Z" fill="#f0efef"/>
        <path id="Path_77" data-name="Path 77" d="M292.771,4.384s1.378,2.825,6.242,15.838C299.013,20.222,303.486,3.881,292.771,4.384Z" fill="#f0efef"/>
      </g>
      <g id="Group_106" data-name="Group 106">
        <path id="Path_78" data-name="Path 78" d="M239.719,119.108s22.3-28.553,13.975-38.437c0,0-11.817-13.653-20.351,5.5C233.343,86.174,226.637,101.442,239.719,119.108Z" fill="#fff" stroke="#23201f" stroke-width="1"/>
        <path id="Path_79" data-name="Path 79" d="M242.853,113.844" fill="#fff"/>
        <path id="Path_80" data-name="Path 80" d="M251.756,113.774s12.821-2.544,13.478,16.93c0,0,1.669,9.708-10.377,4.973,0,0-10.851-4.321-9.479-14.739A8.374,8.374,0,0,1,251.756,113.774Z" fill="#171717"/>
        <path id="Path_81" data-name="Path 81" d="M258.446,120.693s5.456-1.206,3.906,6.948C262.352,127.642,257.126,126.78,258.446,120.693Z" fill="#fff"/>
        <path id="Path_82" data-name="Path 82" d="M260.138,122.112s1.75-.386,1.254,2.229A1.672,1.672,0,0,1,260.138,122.112Z" fill="#010101"/>
        <path id="Path_83" data-name="Path 83" d="M246.787,133.041s-7.754,15.163-26.276,9.306c0,0-14.241-5.687-1.262-17.863,0,0,9.3-7.812,23.663-2.183C242.912,122.3,239.723,130.456,246.787,133.041Z" fill="#231f20"/>
        <path id="Path_84" data-name="Path 84" d="M236.451,120.548s-.775,10.834,5.943,17.9a19.971,19.971,0,0,1-4.536,3.121,31.418,31.418,0,0,1-7.246-21.212A25.341,25.341,0,0,1,236.451,120.548Z" fill="#f78f1e"/>
        <path id="Path_85" data-name="Path 85" d="M220.943,123.32a19.019,19.019,0,0,1,3.422-1.571s-.767,15.649,7.2,21.745a22.4,22.4,0,0,1-7.783-.287s-5.258-6.963-4.914-18.336A6.791,6.791,0,0,1,220.943,123.32Z" fill="#f78f1e"/>
        <path id="Path_86" data-name="Path 86" d="M208.393,133.529s4.394,1.291,5.771,1.207l.259,2.068S209.858,136.113,208.393,133.529Z" fill="#231f20"/>
        <ellipse id="Ellipse_17" data-name="Ellipse 17" cx="2.225" cy="1.335" rx="2.225" ry="1.335" transform="translate(269.056 104.369)" fill="#23201f"/>
        <ellipse id="Ellipse_18" data-name="Ellipse 18" cx="2.226" cy="1.335" rx="2.226" ry="1.335" transform="translate(262.793 97.137) rotate(-35.796)" fill="#23201f"/>
        <path id="Path_87" data-name="Path 87" d="M263.4,97.863s-7.367,4.106-8.171,15.6c0,0,6.032-7.066,14.015-7.41l-.172-.633a23.821,23.821,0,0,0-12.8,5.586c-.04.033-.078.066-.118.1,0,0,1.032-8.271,7.639-12.864Z" fill="#23201f"/>
        <path id="Path_88" data-name="Path 88" d="M239.58,119.172s2.757-36.126-9.649-39.743c0,0-17.4-4.824-13.9,15.852C216.032,95.28,218.9,111.7,239.58,119.172Z" fill="#fff" stroke="#23201f" stroke-width="1"/>
        <path id="Path_89" data-name="Path 89" d="M226.057,80.218s6.467,5.912,12.6,25.582C238.655,105.8,239.2,79.191,226.057,80.218Z" fill="#f0efef"/>
        <path id="Path_90" data-name="Path 90" d="M248.319,79.333s1.2,2.457,5.429,13.774C253.748,93.107,257.636,78.9,248.319,79.333Z" fill="#f0efef"/>
      </g>
      <g id="Group_107" data-name="Group 107">
        <path id="Path_91" data-name="Path 91" d="M224.4,39.617s12.722-16.289,7.972-21.928c0,0-6.741-7.789-11.608,3.139C220.764,20.828,216.938,29.538,224.4,39.617Z" fill="#fff" stroke="#23201f" stroke-width="1"/>
        <path id="Path_92" data-name="Path 92" d="M226.189,36.613" fill="#fff"/>
        <path id="Path_93" data-name="Path 93" d="M231.268,36.574s7.314-1.452,7.689,9.658c0,0,.951,5.539-5.921,2.837,0,0-6.189-2.465-5.408-8.409A4.782,4.782,0,0,1,231.268,36.574Z" fill="#171717"/>
        <path id="Path_94" data-name="Path 94" d="M235.083,40.521s3.113-.688,2.229,3.964C237.313,44.485,234.332,43.994,235.083,40.521Z" fill="#fff"/>
        <path id="Path_95" data-name="Path 95" d="M236.05,41.331s1-.22.715,1.271A.953.953,0,0,1,236.05,41.331Z" fill="#010101"/>
        <path id="Path_96" data-name="Path 96" d="M228.433,47.565s-4.424,8.65-14.99,5.309c0,0-8.125-3.244-.721-10.191,0,0,5.308-4.457,13.5-1.245C226.222,41.438,224.4,46.091,228.433,47.565Z" fill="#231f20"/>
        <path id="Path_97" data-name="Path 97" d="M222.537,40.438s-.442,6.18,3.39,10.21a11.369,11.369,0,0,1-2.587,1.78,17.931,17.931,0,0,1-4.134-12.1A14.485,14.485,0,0,1,222.537,40.438Z" fill="#f78f1e"/>
        <path id="Path_98" data-name="Path 98" d="M213.689,42.02a10.952,10.952,0,0,1,1.952-.9s-.438,8.928,4.11,12.406a12.8,12.8,0,0,1-4.441-.164,17.547,17.547,0,0,1-2.8-10.46A3.81,3.81,0,0,1,213.689,42.02Z" fill="#f78f1e"/>
        <path id="Path_99" data-name="Path 99" d="M206.53,47.844a17.6,17.6,0,0,0,3.292.688l.148,1.18S207.366,49.318,206.53,47.844Z" fill="#231f20"/>
        <ellipse id="Ellipse_19" data-name="Ellipse 19" cx="1.269" cy="0.761" rx="1.269" ry="0.761" transform="translate(241.138 31.209)" fill="#23201f"/>
        <ellipse id="Ellipse_20" data-name="Ellipse 20" cx="1.27" cy="0.761" rx="1.27" ry="0.761" transform="translate(237.57 27.094) rotate(-35.796)" fill="#23201f"/>
        <path id="Path_100" data-name="Path 100" d="M237.911,27.5s-4.2,2.343-4.661,8.9c0,0,3.441-4.031,7.994-4.227l-.1-.361a13.588,13.588,0,0,0-7.3,3.187l-.067.058a11.507,11.507,0,0,1,4.357-7.339Z" fill="#23201f"/>
        <path id="Path_101" data-name="Path 101" d="M224.321,39.653s1.573-20.609-5.5-22.673c0,0-9.929-2.752-7.93,9.043C210.887,26.023,212.526,35.393,224.321,39.653Z" fill="#fff" stroke="#23201f" stroke-width="1"/>
        <path id="Path_102" data-name="Path 102" d="M216.607,17.43s3.689,3.373,7.187,14.6C223.793,32.025,224.1,16.844,216.607,17.43Z" fill="#f0efef"/>
        <path id="Path_103" data-name="Path 103" d="M229.307,16.926s.684,1.4,3.1,7.857C232.4,24.783,234.623,16.676,229.307,16.926Z" fill="#f0efef"/>
      </g>
      <g id="Group_108" data-name="Group 108">
        <path id="Path_104" data-name="Path 104" d="M190.842,121.716s12.722-16.289,7.972-21.928c0,0-6.741-7.789-11.608,3.14C187.206,102.928,183.379,111.638,190.842,121.716Z" fill="#fff" stroke="#23201f" stroke-width="1"/>
        <path id="Path_105" data-name="Path 105" d="M192.63,118.713" fill="#fff"/>
        <path id="Path_106" data-name="Path 106" d="M197.709,118.674s7.314-1.452,7.689,9.657c0,0,.951,5.539-5.921,2.838,0,0-6.189-2.466-5.408-8.409A4.784,4.784,0,0,1,197.709,118.674Z" fill="#171717"/>
        <path id="Path_107" data-name="Path 107" d="M201.525,122.62s3.113-.688,2.229,3.965C203.754,126.585,200.773,126.093,201.525,122.62Z" fill="#fff"/>
        <path id="Path_108" data-name="Path 108" d="M202.492,123.431s1-.221.715,1.271A.954.954,0,0,1,202.492,123.431Z" fill="#010101"/>
        <path id="Path_109" data-name="Path 109" d="M194.875,129.665s-4.424,8.65-14.99,5.309c0,0-8.125-3.244-.721-10.191,0,0,5.308-4.456,13.5-1.244C192.664,123.538,190.844,128.19,194.875,129.665Z" fill="#231f20"/>
        <path id="Path_110" data-name="Path 110" d="M188.978,122.538s-.442,6.18,3.39,10.21a11.369,11.369,0,0,1-2.587,1.78,17.932,17.932,0,0,1-4.134-12.1A14.464,14.464,0,0,1,188.978,122.538Z" fill="#f78f1e"/>
        <path id="Path_111" data-name="Path 111" d="M180.13,124.119a10.953,10.953,0,0,1,1.952-.9s-.438,8.929,4.11,12.405a12.767,12.767,0,0,1-4.441-.164,17.547,17.547,0,0,1-2.8-10.46A3.9,3.9,0,0,1,180.13,124.119Z" fill="#f78f1e"/>
        <path id="Path_112" data-name="Path 112" d="M172.971,129.943a17.6,17.6,0,0,0,3.292.688l.148,1.18S173.807,131.417,172.971,129.943Z" fill="#231f20"/>
        <ellipse id="Ellipse_21" data-name="Ellipse 21" cx="1.269" cy="0.762" rx="1.269" ry="0.762" transform="translate(207.58 113.307)" fill="#23201f"/>
        <ellipse id="Ellipse_22" data-name="Ellipse 22" cx="1.27" cy="0.761" rx="1.27" ry="0.761" transform="translate(204.008 109.183) rotate(-35.817)" fill="#23201f"/>
        <path id="Path_113" data-name="Path 113" d="M204.352,109.6s-4.2,2.343-4.661,8.9c0,0,3.441-4.031,7.994-4.228l-.1-.36a13.591,13.591,0,0,0-7.3,3.186l-.067.059a11.511,11.511,0,0,1,4.357-7.34Z" fill="#23201f"/>
        <path id="Path_114" data-name="Path 114" d="M190.762,121.753s1.573-20.609-5.5-22.674c0,0-9.929-2.752-7.93,9.043C177.329,108.122,178.967,117.493,190.762,121.753Z" fill="#fff" stroke="#23201f" stroke-width="1"/>
        <path id="Path_115" data-name="Path 115" d="M183.048,99.53s3.689,3.372,7.187,14.594C190.235,114.124,190.546,98.944,183.048,99.53Z" fill="#f0efef"/>
        <path id="Path_116" data-name="Path 116" d="M195.749,99.025s.684,1.4,3.1,7.857C198.845,106.883,201.064,98.775,195.749,99.025Z" fill="#f0efef"/>
      </g>
      <path id="Path_117" data-name="Path 117" d="M3.127-1.755V-11.966A19.62,19.62,0,0,0,9.158-8.472a19.385,19.385,0,0,0,6.573,1.165,14.577,14.577,0,0,0,3.4-.351,7.96,7.96,0,0,0,2.425-.973A4.245,4.245,0,0,0,23.007-10.1a3.662,3.662,0,0,0,.479-1.835,3.966,3.966,0,0,0-.766-2.393,8.241,8.241,0,0,0-2.09-1.946A21.839,21.839,0,0,0,17.486-18q-1.819-.83-3.925-1.691a20.031,20.031,0,0,1-7.993-5.456A11.913,11.913,0,0,1,2.936-32.93a12.4,12.4,0,0,1,1.436-6.143A12.2,12.2,0,0,1,8.28-43.3a17.527,17.527,0,0,1,5.728-2.441,29.431,29.431,0,0,1,6.892-.782,41.455,41.455,0,0,1,6.334.431,24.91,24.91,0,0,1,5.09,1.324v9.541a15.39,15.39,0,0,0-2.5-1.4,19.846,19.846,0,0,0-2.792-1.005,21.3,21.3,0,0,0-2.856-.59,20.212,20.212,0,0,0-2.7-.191,14.062,14.062,0,0,0-3.191.335,8.185,8.185,0,0,0-2.425.941,4.683,4.683,0,0,0-1.532,1.452,3.441,3.441,0,0,0-.542,1.9,3.626,3.626,0,0,0,.606,2.058,6.955,6.955,0,0,0,1.723,1.723,18.286,18.286,0,0,0,2.712,1.6q1.6.782,3.606,1.611a40.179,40.179,0,0,1,4.93,2.441,17.526,17.526,0,0,1,3.749,2.92A11.374,11.374,0,0,1,33.5-17.726a13.136,13.136,0,0,1,.83,4.866,13.035,13.035,0,0,1-1.452,6.43,11.787,11.787,0,0,1-3.941,4.212A17.088,17.088,0,0,1,23.15.1a33.471,33.471,0,0,1-6.972.7A38.769,38.769,0,0,1,9.014.16,21.625,21.625,0,0,1,3.127-1.755ZM88.2-32.675,78.784,0H68.19L63.372-19.146a19.492,19.492,0,0,1-.542-4.18h-.191A25.013,25.013,0,0,1,62-19.273L56.83,0H46.364L37.142-32.675H47.417l4.5,21.315a27.715,27.715,0,0,1,.479,3.638h.191a20.145,20.145,0,0,1,.574-3.765l5.616-21.188h9.6L73.423-11.36a33.9,33.9,0,0,1,.447,3.7h.223a36.829,36.829,0,0,1,.511-3.7l4.244-21.315ZM120.17,0h-9.541V-4.691H110.5A10.649,10.649,0,0,1,100.769.8a10.18,10.18,0,0,1-7.483-2.7,9.662,9.662,0,0,1-2.728-7.2q0-9.509,11.264-10.977l8.871-1.181q0-5.361-5.807-5.361a19.823,19.823,0,0,0-11.1,3.478v-7.594a24.982,24.982,0,0,1,5.76-1.915,30.277,30.277,0,0,1,6.653-.83q13.976,0,13.976,13.944Zm-9.477-13.274v-2.2l-5.935.766q-4.914.638-4.914,4.435a3.665,3.665,0,0,0,1.2,2.824,4.6,4.6,0,0,0,3.239,1.1,5.97,5.97,0,0,0,4.627-1.962A7.088,7.088,0,0,0,110.693-13.274Zm38.77-10.307a8.747,8.747,0,0,0-4.244-.989,6.114,6.114,0,0,0-5.137,2.409,10.51,10.51,0,0,0-1.851,6.557V0H128.147V-32.675h10.083v6.063h.128q2.393-6.637,8.615-6.637a6.493,6.493,0,0,1,2.489.383ZM206.038,0H195.986V-18.635q0-7.116-5.233-7.116a4.808,4.808,0,0,0-4.052,2.138,8.786,8.786,0,0,0-1.564,5.329V0H175.054V-18.826q0-6.924-5.137-6.924a4.925,4.925,0,0,0-4.132,2.042,8.986,8.986,0,0,0-1.548,5.552V0H154.153V-32.675h10.083v5.105h.128a12.056,12.056,0,0,1,4.388-4.26,12.059,12.059,0,0,1,6.174-1.643q6.924,0,9.477,6.095a12.087,12.087,0,0,1,10.977-6.095q10.658,0,10.658,13.147Z" transform="translate(0 82.659)" fill="#010101"/>
    </g>
  </g>
</svg>
