<svg xmlns="http://www.w3.org/2000/svg" width="179" height="179" viewBox="0 0 179 179">
  <g id="Group_90" data-name="Group 90" transform="translate(-863 -368)">
    <circle id="Ellipse_15" data-name="Ellipse 15" cx="89.5" cy="89.5" r="89.5" transform="translate(863 368)" fill="#f3f2f2"/>
    <g id="Group_86" data-name="Group 86" transform="translate(3.5 1)">
      <path id="ic_drafts_24px" d="M84.064,29.737a8.137,8.137,0,0,0-3.859-6.979L43.053,1,5.9,22.758A8.174,8.174,0,0,0,2,29.737V70.789A8.235,8.235,0,0,0,10.211,79H75.895a8.235,8.235,0,0,0,8.211-8.211ZM43.053,50.263,9.143,29.08,43.053,9.211,76.962,29.08Z" transform="translate(909.447 417.5)" fill="#f1880e"/>
      <g id="Rectangle_175" data-name="Rectangle 175" transform="translate(925 409)" fill="#fff" stroke="#f1880e" stroke-width="3">
        <rect width="56" height="64" rx="12" stroke="none"/>
        <rect x="1.5" y="1.5" width="53" height="61" rx="10.5" fill="none"/>
      </g>
      <path id="Path_46" data-name="Path 46" d="M10895.513-1370.406l34.178,21.161,34.119-21.161v34.988l-55.421-2.239-14.275-20.433Z" transform="translate(-9977 1817)" fill="#f1880e"/>
      <rect id="Rectangle_176" data-name="Rectangle 176" width="27" height="6" rx="3" transform="translate(933 434)" fill="#f1880e"/>
      <rect id="Rectangle_177" data-name="Rectangle 177" width="19" height="6" rx="3" transform="translate(933 426)" fill="#f1880e"/>
    </g>
  </g>
</svg>
