<svg xmlns="http://www.w3.org/2000/svg" width="24" height="16" viewBox="0 0 24 16">
  <g id="Group_87" data-name="Group 87" transform="translate(-135 -687)">
    <path id="ic_cloud_24px" d="M19.35,10.04a7.492,7.492,0,0,0-14-2A6,6,0,0,0,6,20H19a4.986,4.986,0,0,0,.35-9.96Z" transform="translate(135 683)" fill="#b9b9b9"/>
    <path id="ic_settings_24px" d="M9.516,6.636a2.911,2.911,0,0,0,0-.828l.891-.7a.213.213,0,0,0,.051-.27L9.613,3.381a.212.212,0,0,0-.258-.093L8.3,3.71A3.085,3.085,0,0,0,7.591,3.3L7.43,2.177A.206.206,0,0,0,7.223,2H5.534a.206.206,0,0,0-.207.177L5.167,3.3a3.244,3.244,0,0,0-.714.414L3.4,3.288a.206.206,0,0,0-.258.093L2.3,4.842a.208.208,0,0,0,.051.27l.891.7a3.349,3.349,0,0,0-.03.414,3.349,3.349,0,0,0,.03.414l-.891.7A.213.213,0,0,0,2.3,7.6l.844,1.461a.212.212,0,0,0,.258.093l1.051-.422a3.085,3.085,0,0,0,.714.414l.16,1.119a.206.206,0,0,0,.207.177H7.223a.206.206,0,0,0,.207-.177l.16-1.119A3.244,3.244,0,0,0,8.3,8.735l1.051.422a.206.206,0,0,0,.258-.093L10.458,7.6a.213.213,0,0,0-.051-.27ZM6.379,7.7A1.478,1.478,0,1,1,7.857,6.222,1.479,1.479,0,0,1,6.379,7.7Z" transform="translate(140.622 689.778)"/>
  </g>
</svg>
