<svg xmlns="http://www.w3.org/2000/svg" width="67.989" height="82.131" viewBox="0 0 67.989 82.131">
  <g id="Group_94" data-name="Group 94" transform="translate(-1096.082 -591.5)">
    <g id="Group_82" data-name="Group 82" transform="translate(1096.082 591.5)">
      <path id="Path_44" data-name="Path 44" d="M19209.707,731.235h49.6l18.18,16.735v65.3h-67.781Z" transform="translate(-19209.707 -731.135)" fill="#f1880e"/>
      <path id="Path_45" data-name="Path 45" d="M0,0,1.085,18.729l17.3-2.343Z" transform="matrix(1, 0.017, -0.017, 1, 49.602, 0)" fill="#ac6007"/>
    </g>
    <path id="Path_62" data-name="Path 62" d="M-3.086,0h-1.3V-7.516q0-.891.109-2.18h-.031a6.968,6.968,0,0,1-.336,1.086L-8.477,0h-.641l-3.82-8.547A6.7,6.7,0,0,1-13.273-9.7H-13.3q.063.672.063,2.2V0h-1.266V-11.2h1.734l3.438,7.813A10,10,0,0,1-8.82-2.047h.047q.336-.922.539-1.375L-4.727-11.2h1.641ZM1.172-4.234V0H-.141V-11.2H2.938a4.063,4.063,0,0,1,2.785.875,3.124,3.124,0,0,1,.988,2.469,3.4,3.4,0,0,1-1.1,2.609A4.194,4.194,0,0,1,2.648-4.234Zm0-5.781v4.594H2.547a3.074,3.074,0,0,0,2.074-.621A2.2,2.2,0,0,0,5.336-7.8q0-2.219-2.625-2.219ZM13.992-11.2v7.4H15.43v1.172H13.992V0H12.727V-2.633H7.461V-3.742Q8.2-4.57,8.945-5.512t1.434-1.91q.684-.969,1.266-1.934a17.671,17.671,0,0,0,.98-1.848ZM8.906-3.8h3.82V-9.289q-.586,1.023-1.109,1.828T10.621-6q-.473.656-.9,1.188T8.906-3.8Z" transform="translate(1130 660)" fill="#fff"/>
  </g>
</svg>
