<svg xmlns="http://www.w3.org/2000/svg" width="179" height="179" viewBox="0 0 179 179">
  <g id="Group_92" data-name="Group 92" transform="translate(-863 -348)">
    <g id="Group_91" data-name="Group 91">
      <circle id="Ellipse_15" data-name="Ellipse 15" cx="89.5" cy="89.5" r="89.5" transform="translate(863 348)" fill="#f3f2f2"/>
      <path id="ic_lock_24px" d="M72.25,35.125H67.375v-9.75a24.375,24.375,0,0,0-48.75,0v9.75H13.75A9.779,9.779,0,0,0,4,44.875v48.75a9.779,9.779,0,0,0,9.75,9.75h58.5A9.779,9.779,0,0,0,82,93.625V44.875A9.779,9.779,0,0,0,72.25,35.125ZM43,79a9.75,9.75,0,1,1,9.75-9.75A9.779,9.779,0,0,1,43,79ZM58.113,35.125H27.887v-9.75a15.113,15.113,0,0,1,30.225,0Z" transform="translate(909.5 378.313)" fill="#f1880e"/>
      <circle id="Ellipse_16" data-name="Ellipse 16" cx="14.5" cy="14.5" r="14.5" transform="translate(938 432)" fill="#fff"/>
    </g>
    <path id="ic_done_24px" d="M7.765,12.432,4.491,10.588,3.4,11.68l4.365,4.365,8.262-9.571V5.6Z" transform="translate(942.786 435.678)" fill="#13a403"/>
  </g>
</svg>
