<svg xmlns="http://www.w3.org/2000/svg" width="25.504" height="22.491" viewBox="0 0 25.504 22.491">
  <g id="Group_100" data-name="Group 100" transform="translate(-83.5 -488.755)">
    <path id="ic_person_24px" d="M8.821,8.821A2.411,2.411,0,1,0,6.411,6.411,2.41,2.41,0,0,0,8.821,8.821Zm0,1.205C7.212,10.027,4,10.834,4,12.437v1.205h9.643V12.437C13.643,10.834,10.43,10.027,8.821,10.027Z" transform="translate(87.427 484.755)" fill="#fff"/>
    <path id="ic_person_24px-2" data-name="ic_person_24px" d="M8.821,8.821A2.411,2.411,0,1,0,6.411,6.411,2.41,2.41,0,0,0,8.821,8.821Zm0,1.205C7.212,10.027,4,10.834,4,12.437v1.205h9.643V12.437C13.643,10.834,10.43,10.027,8.821,10.027Z" transform="translate(79.5 497.603)" fill="#fff"/>
    <path id="ic_person_24px-3" data-name="ic_person_24px" d="M8.821,8.821A2.411,2.411,0,1,0,6.411,6.411,2.41,2.41,0,0,0,8.821,8.821Zm0,1.205C7.212,10.027,4,10.834,4,12.437v1.205h9.643V12.437C13.643,10.834,10.43,10.027,8.821,10.027Z" transform="translate(95.361 497.603)" fill="#fff"/>
  </g>
</svg>
