<svg xmlns="http://www.w3.org/2000/svg" width="19.531" height="16.876" viewBox="0 0 19.531 16.876">
  <path id="ic_visibility_off_24px" d="M10.77,6.553a4.443,4.443,0,0,1,4.441,4.441,4.311,4.311,0,0,1-.32,1.625l2.594,2.594a10.5,10.5,0,0,0,3.047-4.219,10.5,10.5,0,0,0-9.77-6.661,10.343,10.343,0,0,0-3.535.622L9.145,6.873A4.311,4.311,0,0,1,10.77,6.553ZM1.888,4.128,3.913,6.153l.409.409A10.484,10.484,0,0,0,1,10.994a10.5,10.5,0,0,0,13.66,5.915l.373.373,2.6,2.594,1.128-1.128L3.016,3ZM6.8,9.04l1.377,1.377a2.506,2.506,0,0,0-.071.577,2.661,2.661,0,0,0,2.665,2.665,2.506,2.506,0,0,0,.577-.071l1.377,1.377A4.412,4.412,0,0,1,6.8,9.04Zm3.828-.693,2.8,2.8L13.444,11a2.661,2.661,0,0,0-2.665-2.665Z" transform="translate(-1 -3)" fill="#a1a1a1"/>
</svg>
