<svg xmlns="http://www.w3.org/2000/svg" width="67.989" height="82.131" viewBox="0 0 67.989 82.131">
  <g id="Group_97" data-name="Group 97" transform="translate(-577.863 -880.848)">
    <g id="Group_74" data-name="Group 74" transform="translate(577.863 880.848)">
      <path id="Path_44" data-name="Path 44" d="M19209.707,731.235h49.6l18.18,16.735v65.3h-67.781Z" transform="translate(-19209.707 -731.135)" fill="#b9b9b9"/>
      <path id="Path_45" data-name="Path 45" d="M0,0,1.085,18.729l17.3-2.343Z" transform="matrix(1, 0.017, -0.017, 1, 49.602, 0)" fill="#9e9e9e"/>
    </g>
    <path id="Path_54" data-name="Path 54" d="M-11.215-4.234V0h-1.312V-11.2h3.078a4.063,4.063,0,0,1,2.785.875,3.124,3.124,0,0,1,.988,2.469,3.4,3.4,0,0,1-1.1,2.609A4.194,4.194,0,0,1-9.738-4.234Zm0-5.781v4.594H-9.84a3.074,3.074,0,0,0,2.074-.621A2.2,2.2,0,0,0-7.051-7.8q0-2.219-2.625-2.219ZM-3.566,0V-11.2H-.473q5.922,0,5.922,5.461A5.5,5.5,0,0,1,3.8-1.574,6.1,6.1,0,0,1-.6,0Zm1.313-10.016v8.828H-.582a4.745,4.745,0,0,0,3.43-1.18A4.422,4.422,0,0,0,4.074-5.711q0-4.3-4.578-4.3Zm15.594,0H8.965v3.875h4.047v1.18H8.965V0H7.652V-11.2H13.34Z" transform="translate(614 947)" fill="#fff"/>
  </g>
</svg>
