<svg xmlns="http://www.w3.org/2000/svg" width="67.989" height="82.131" viewBox="0 0 67.989 82.131">
  <g id="Group_88" data-name="Group 88" transform="translate(-569.738 -593.848)">
    <g id="Group_67" data-name="Group 67" transform="translate(569.738 593.848)">
      <path id="Path_44" data-name="Path 44" d="M19209.707,731.235h49.6l18.18,16.735v65.3h-67.781Z" transform="translate(-19209.707 -731.135)" fill="#b9b9b9"/>
      <path id="Path_45" data-name="Path 45" d="M0,0,1.085,18.729l17.3-2.343Z" transform="matrix(1, 0.017, -0.017, 1, 49.602, 0)" fill="#9e9e9e"/>
    </g>
    <path id="Path_48" data-name="Path 48" d="M-13.172-4.234V0h-1.312V-11.2h3.078a4.063,4.063,0,0,1,2.785.875,3.124,3.124,0,0,1,.988,2.469A3.4,3.4,0,0,1-8.73-5.25,4.194,4.194,0,0,1-11.7-4.234Zm0-5.781v4.594H-11.8a3.074,3.074,0,0,0,2.074-.621A2.2,2.2,0,0,0-9.008-7.8q0-2.219-2.625-2.219ZM3.508,0H1.9L-3.867-8.93a3.731,3.731,0,0,1-.359-.7h-.047a11.534,11.534,0,0,1,.063,1.539V0H-5.523V-11.2h1.7L1.789-2.414q.352.547.453.75h.031A11.853,11.853,0,0,1,2.2-3.312V-11.2H3.508ZM14.82-.766a7.492,7.492,0,0,1-3.75.953A5.124,5.124,0,0,1,7.191-1.359a5.674,5.674,0,0,1-1.48-4.094,5.826,5.826,0,0,1,1.645-4.27,5.606,5.606,0,0,1,4.168-1.668,7.093,7.093,0,0,1,3.07.594v1.453a5.9,5.9,0,0,0-3.219-.859,4.021,4.021,0,0,0-3.086,1.3,4.743,4.743,0,0,0-1.2,3.359A4.746,4.746,0,0,0,8.2-2.207,3.916,3.916,0,0,0,11.234-.992a4.684,4.684,0,0,0,2.273-.523V-4.656H11.055V-5.844H14.82Z" transform="translate(604 660)" fill="#fff"/>
  </g>
</svg>
