<svg xmlns="http://www.w3.org/2000/svg" width="20" height="22.547" viewBox="0 0 20 22.547">
  <g id="Group_99" data-name="Group 99" transform="translate(-86.252 -429.453)">
    <path id="ic_settings_24px" d="M6.641,4.8a1.756,1.756,0,0,0,0-.5l.537-.42a.129.129,0,0,0,.031-.163L6.7,2.833a.128.128,0,0,0-.155-.056l-.634.255a1.861,1.861,0,0,0-.43-.25l-.1-.675A.124.124,0,0,0,5.258,2H4.239a.124.124,0,0,0-.125.107l-.1.675a1.957,1.957,0,0,0-.43.25l-.634-.255a.124.124,0,0,0-.155.056l-.509.881a.126.126,0,0,0,.031.163l.537.42a1.756,1.756,0,0,0,0,.5l-.537.42a.129.129,0,0,0-.031.163l.509.881a.128.128,0,0,0,.155.056l.634-.255a1.861,1.861,0,0,0,.43.25l.1.675a.124.124,0,0,0,.125.107H5.258a.124.124,0,0,0,.125-.107l.1-.675a1.957,1.957,0,0,0,.43-.25l.634.255A.124.124,0,0,0,6.7,6.261l.509-.881a.129.129,0,0,0-.031-.163Zm-1.892.642a.891.891,0,1,1,.891-.891A.892.892,0,0,1,4.749,5.439Z" transform="translate(98.072 427.967)" fill="#fff"/>
    <path id="ic_shopping_cart_24px" d="M7,18a2,2,0,1,0,2,2A2,2,0,0,0,7,18ZM1,2V4H3l3.6,7.59L5.25,14.04A1.933,1.933,0,0,0,5,15a2.006,2.006,0,0,0,2,2H19V15H7.42a.248.248,0,0,1-.25-.25l.03-.12L8.1,13h7.45a1.991,1.991,0,0,0,1.75-1.03l3.58-6.49A.977.977,0,0,0,21,5a1,1,0,0,0-1-1H5.21L4.27,2H1ZM17,18a2,2,0,1,0,2,2A2,2,0,0,0,17,18Z" transform="translate(85.252 430)" fill="#fff"/>
    <path id="ic_cloud_queue_24px" d="M8.727,6.724a3.379,3.379,0,0,0-6.314-.9,2.7,2.7,0,0,0,.293,5.394H8.569a2.249,2.249,0,0,0,.158-4.492Zm-.158,3.59H2.706a1.8,1.8,0,0,1,0-3.608h.32a2.48,2.48,0,0,1,4.866.677v.226h.677a1.353,1.353,0,0,1,0,2.706Z" transform="translate(90.84 425.453)" fill="#fff"/>
  </g>
</svg>
