<svg xmlns="http://www.w3.org/2000/svg" width="67.988" height="82.131" viewBox="0 0 67.988 82.131">
  <g id="Group_93" data-name="Group 93" transform="translate(-1011.316 -591.5)">
    <g id="Group_72" data-name="Group 72" transform="translate(1011.316 591.5)">
      <path id="Path_44" data-name="Path 44" d="M19209.707,731.235h49.6l18.18,16.735v65.3h-67.781Z" transform="translate(-19209.707 -731.135)" fill="#787878"/>
      <path id="Path_45" data-name="Path 45" d="M0,0,1.085,18.729l17.3-2.343Z" transform="matrix(1, 0.017, -0.017, 1, 49.601, 0)" fill="#565656"/>
    </g>
    <path id="Path_64" data-name="Path 64" d="M-11.559-4.234V0h-1.312V-11.2h3.078a4.063,4.063,0,0,1,2.785.875A3.124,3.124,0,0,1-6.02-7.859a3.4,3.4,0,0,1-1.1,2.609,4.194,4.194,0,0,1-2.965,1.016Zm0-5.781v4.594h1.375a3.074,3.074,0,0,0,2.074-.621A2.2,2.2,0,0,0-7.395-7.8q0-2.219-2.625-2.219ZM-4.434-.453V-2a3,3,0,0,0,.637.422,5.159,5.159,0,0,0,.781.316,6.219,6.219,0,0,0,.824.2,4.6,4.6,0,0,0,.766.07A3,3,0,0,0,.383-1.441a1.52,1.52,0,0,0,.6-1.293,1.518,1.518,0,0,0-.2-.789A2.244,2.244,0,0,0,.23-4.137,5.465,5.465,0,0,0-.6-4.668q-.48-.254-1.035-.535-.586-.3-1.094-.6a4.74,4.74,0,0,1-.883-.672,2.8,2.8,0,0,1-.59-.832A2.575,2.575,0,0,1-4.418-8.4,2.563,2.563,0,0,1-4.082-9.73a2.881,2.881,0,0,1,.883-.934,4,4,0,0,1,1.246-.547,5.706,5.706,0,0,1,1.426-.18,5.464,5.464,0,0,1,2.414.4v1.477A4.376,4.376,0,0,0-.66-10.2a4.189,4.189,0,0,0-.859.09,2.428,2.428,0,0,0-.766.293,1.7,1.7,0,0,0-.547.523,1.389,1.389,0,0,0-.211.781,1.608,1.608,0,0,0,.16.742,1.819,1.819,0,0,0,.473.57,4.708,4.708,0,0,0,.762.5q.449.242,1.035.531.6.3,1.141.625a5.214,5.214,0,0,1,.945.727,3.229,3.229,0,0,1,.645.883,2.482,2.482,0,0,1,.238,1.109,2.813,2.813,0,0,1-.324,1.4,2.661,2.661,0,0,1-.875.934,3.822,3.822,0,0,1-1.27.52,6.953,6.953,0,0,1-1.516.16A6.176,6.176,0,0,1-2.285.145Q-2.676.1-3.082.02a6.5,6.5,0,0,1-.77-.2A2.4,2.4,0,0,1-4.434-.453ZM4.59,0V-11.2H7.684q5.922,0,5.922,5.461a5.5,5.5,0,0,1-1.645,4.168A6.1,6.1,0,0,1,7.559,0ZM5.9-10.016v8.828H7.574A4.745,4.745,0,0,0,11-2.367,4.422,4.422,0,0,0,12.23-5.711q0-4.3-4.578-4.3Z" transform="translate(1045 660)" fill="#fff"/>
  </g>
</svg>
