<svg xmlns="http://www.w3.org/2000/svg" width="67.989" height="82.131" viewBox="0 0 67.989 82.131">
  <g id="Group_95" data-name="Group 95" transform="translate(-1182.082 -591.5)">
    <g id="Group_83" data-name="Group 83" transform="translate(1182.082 591.5)">
      <path id="Path_44" data-name="Path 44" d="M19209.707,731.235h49.6l18.18,16.735v65.3h-67.781Z" transform="translate(-19209.707 -731.135)" fill="#0e69f1"/>
      <path id="Path_45" data-name="Path 45" d="M0,0,1.085,18.729l17.3-2.343Z" transform="matrix(1, 0.017, -0.017, 1, 49.602, 0)" fill="#0c53bc"/>
    </g>
    <path id="Path_63" data-name="Path 63" d="M-7.371,0H-8.934l-1.875-3.141a6.84,6.84,0,0,0-.5-.746,2.85,2.85,0,0,0-.5-.5,1.718,1.718,0,0,0-.547-.285,2.249,2.249,0,0,0-.66-.09H-14.09V0H-15.4V-11.2h3.344a4.765,4.765,0,0,1,1.355.184,3.033,3.033,0,0,1,1.078.559,2.6,2.6,0,0,1,.715.934,3.1,3.1,0,0,1,.258,1.309,3.151,3.151,0,0,1-.176,1.074,2.805,2.805,0,0,1-.5.871,3.031,3.031,0,0,1-.781.652,3.988,3.988,0,0,1-1.027.418v.031a2.363,2.363,0,0,1,.488.285,2.687,2.687,0,0,1,.395.379,5.019,5.019,0,0,1,.371.5q.184.277.41.645ZM-14.09-10.016v4.063h1.781A2.7,2.7,0,0,0-11.4-6.1a2.107,2.107,0,0,0,.723-.426,1.931,1.931,0,0,0,.477-.68,2.275,2.275,0,0,0,.172-.9,1.756,1.756,0,0,0-.582-1.4,2.5,2.5,0,0,0-1.684-.5ZM2.84,0H1.387L.2-3.141h-4.75L-5.668,0H-7.129l4.3-11.2h1.359ZM-.23-4.32-1.988-9.094a4.571,4.571,0,0,1-.172-.75h-.031a4.185,4.185,0,0,1-.18.75L-4.113-4.32ZM16.676-11.2,13.512,0H11.973l-2.3-8.187a5.125,5.125,0,0,1-.18-1.141H9.457a5.787,5.787,0,0,1-.2,1.125L6.934,0H5.41L2.129-11.2H3.574L5.957-2.609a5.64,5.64,0,0,1,.188,1.125h.039a6.641,6.641,0,0,1,.242-1.125L8.9-11.2H10.16l2.375,8.656A6.332,6.332,0,0,1,12.723-1.5h.031a6.276,6.276,0,0,1,.211-1.078L15.254-11.2Z" transform="translate(1216 660)" fill="#fff"/>
  </g>
</svg>
