<svg xmlns="http://www.w3.org/2000/svg" width="19.677" height="26.723" viewBox="0 0 19.677 26.723">
  <path id="Path_46" data-name="Path 46" d="M5.332-14.971a.241.241,0,0,0,.015.073l.015.044A9.021,9.021,0,0,0,6.855-10.2L9.463-12.8a5.817,5.817,0,0,1-.586-2.319,3.875,3.875,0,0,1,.145-1.044.388.388,0,0,1,.024-.1l.024-.073a4.3,4.3,0,0,1,.387-.841.939.939,0,0,1,.06-.234,6.328,6.328,0,0,1,.4-.808.149.149,0,0,1,.029-.075l.029-.045a5.6,5.6,0,0,1,3.293-2.574l-.229.264a1.66,1.66,0,0,0-.515,1.245,1.733,1.733,0,0,0,.5,1.26,1.655,1.655,0,0,0,1.231.513,1.727,1.727,0,0,0,1.245-.5l3.407-3.516h.029a1.793,1.793,0,0,0,.487-1.26,1.707,1.707,0,0,0-.5-1.26A.026.026,0,0,1,18.9-24.2l-3.516-3.486a1.642,1.642,0,0,0-1.245-.527,1.688,1.688,0,0,0-1.26.527,1.744,1.744,0,0,0-.513,1.26,1.719,1.719,0,0,0,.527,1.26l.557.557A8.987,8.987,0,0,0,7.91-21.8a1.773,1.773,0,0,0-.146.117.567.567,0,0,0-.073.1.567.567,0,0,1-.073.1q-.353.41-.676.85-.206.322-.235.351a11.2,11.2,0,0,0-.558,1.083q-.088.205-.147.351a7.916,7.916,0,0,0-.412,1.2l-.057.22a6.561,6.561,0,0,0-.171,1.182,1,1,0,0,1-.015.119A.991.991,0,0,0,5.332-16q-.015.264-.015.52T5.332-14.971ZM9.873-7.793a1.771,1.771,0,0,1,.5-1.26H10.4l3.486-3.516a1.771,1.771,0,0,1,1.26-.5,1.744,1.744,0,0,1,1.26.513,1.688,1.688,0,0,1,.527,1.26,1.642,1.642,0,0,1-.527,1.245l-.234.264a5.458,5.458,0,0,0,3.34-2.49.567.567,0,0,0,.073-.1.255.255,0,0,0,.044-.1q.176-.322.352-.674.088-.264.117-.381a4.148,4.148,0,0,0,.146-.527,6.2,6.2,0,0,0,.146-1.318,5.615,5.615,0,0,0-.586-2.49l2.616-2.637a9.341,9.341,0,0,1,1.53,4.57.613.613,0,0,0,.015.1.613.613,0,0,1,.015.1q.015.205.015.41a8.988,8.988,0,0,1-.721,3.516.359.359,0,0,1-.029.132.316.316,0,0,1-.059.1,10.916,10.916,0,0,1-.618,1.172.826.826,0,0,1-.1.146.281.281,0,0,0-.073.117q-.382.527-.765.967a.12.12,0,0,1-.044.073.12.12,0,0,0-.044.073.085.085,0,0,0-.059.029l-.03.029a9.125,9.125,0,0,1-5.6,2.871l.557.557a1.719,1.719,0,0,1,.527,1.26,1.719,1.719,0,0,1-.527,1.26,1.719,1.719,0,0,1-1.26.527,1.625,1.625,0,0,1-1.23-.527L10.4-6.5v-.015q0-.015-.029-.015A1.707,1.707,0,0,1,9.873-7.793Z" transform="translate(-4.817 28.713)" fill="#fff" stroke="#000" stroke-width="1"/>
</svg>
