<svg xmlns="http://www.w3.org/2000/svg" width="71" height="71" viewBox="0 0 71 71">
  <g id="Group_104" data-name="Group 104" transform="translate(-603 -717)">
    <circle id="Ellipse_7" data-name="Ellipse 7" cx="35.5" cy="35.5" r="35.5" transform="translate(603 717)" fill="#f1880e"/>
    <path id="Path_118" data-name="Path 118" d="M10.664-29.941a.482.482,0,0,0,.029.146l.029.088a18.041,18.041,0,0,0,2.988,9.316l5.215-5.219a11.633,11.633,0,0,1-1.172-4.639,7.749,7.749,0,0,1,.291-2.087.777.777,0,0,1,.048-.2l.049-.145a8.6,8.6,0,0,1,.775-1.681,1.877,1.877,0,0,1,.119-.468,12.656,12.656,0,0,1,.8-1.616.3.3,0,0,1,.057-.15l.057-.09a11.19,11.19,0,0,1,6.585-5.148l-.458.527a3.32,3.32,0,0,0-1.031,2.49,3.466,3.466,0,0,0,1,2.52,3.309,3.309,0,0,0,2.462,1.025,3.454,3.454,0,0,0,2.491-1L37.817-43.3h.057a3.586,3.586,0,0,0,.974-2.52,3.415,3.415,0,0,0-1-2.52.052.052,0,0,1-.059-.059l-7.031-6.973a3.283,3.283,0,0,0-2.49-1.055,3.377,3.377,0,0,0-2.52,1.055,3.488,3.488,0,0,0-1.025,2.52,3.439,3.439,0,0,0,1.055,2.52l1.113,1.113A17.974,17.974,0,0,0,15.82-43.594a3.545,3.545,0,0,0-.293.234,1.133,1.133,0,0,0-.146.205,1.133,1.133,0,0,1-.146.205q-.706.82-1.352,1.7-.412.644-.471.7a22.391,22.391,0,0,0-1.117,2.166q-.176.41-.294.7a15.832,15.832,0,0,0-.823,2.4l-.114.44a13.121,13.121,0,0,0-.341,2.364,2.007,2.007,0,0,1-.029.239,1.981,1.981,0,0,0-.029.243q-.029.527-.029,1.04T10.664-29.941Zm9.082,14.355a3.542,3.542,0,0,1,1-2.52H20.8l6.973-7.031a3.542,3.542,0,0,1,2.52-1,3.488,3.488,0,0,1,2.52,1.025,3.377,3.377,0,0,1,1.055,2.52,3.283,3.283,0,0,1-1.055,2.49l-.469.527a10.917,10.917,0,0,0,6.68-4.98,1.133,1.133,0,0,0,.146-.205.51.51,0,0,0,.088-.205q.352-.645.7-1.348.176-.527.234-.762a8.3,8.3,0,0,0,.293-1.055,12.392,12.392,0,0,0,.293-2.637,11.23,11.23,0,0,0-1.172-4.98l5.231-5.273A18.682,18.682,0,0,1,47.9-31.875a1.225,1.225,0,0,0,.03.205,1.225,1.225,0,0,1,.03.205q.029.41.029.82a17.976,17.976,0,0,1-1.441,7.031.717.717,0,0,1-.059.264.631.631,0,0,1-.117.205A21.832,21.832,0,0,1,45.135-20.8a1.652,1.652,0,0,1-.206.293.561.561,0,0,0-.147.234q-.765,1.055-1.53,1.934a.24.24,0,0,1-.088.146.24.24,0,0,0-.088.146.169.169,0,0,0-.118.059l-.059.059a18.251,18.251,0,0,1-11.2,5.742l1.113,1.113a3.439,3.439,0,0,1,1.055,2.52,3.439,3.439,0,0,1-1.055,2.52,3.439,3.439,0,0,1-2.52,1.055,3.25,3.25,0,0,1-2.461-1.055L20.8-13.008v-.029q0-.029-.059-.029A3.415,3.415,0,0,1,19.746-15.586Z" transform="translate(609 785)" fill="#fff"/>
  </g>
</svg>
