<svg xmlns="http://www.w3.org/2000/svg" width="67.989" height="82.131" viewBox="0 0 67.989 82.131">
  <g id="Group_90" data-name="Group 90" transform="translate(-757.465 -593.848)">
    <g id="Group_69" data-name="Group 69" transform="translate(757.465 593.848)">
      <path id="Path_44" data-name="Path 44" d="M19209.707,731.235h49.6l18.18,16.735v65.3h-67.781Z" transform="translate(-19209.707 -731.135)" fill="#5d5d5d"/>
      <path id="Path_45" data-name="Path 45" d="M0,0,1.085,18.729l17.3-2.343Z" transform="matrix(1, 0.017, -0.017, 1, 49.602, 0)" fill="#464646"/>
    </g>
    <path id="Path_50" data-name="Path 50" d="M-13.566-.453V-2a3,3,0,0,0,.637.422,5.159,5.159,0,0,0,.781.316,6.219,6.219,0,0,0,.824.2,4.6,4.6,0,0,0,.766.07A3,3,0,0,0-8.75-1.441a1.52,1.52,0,0,0,.6-1.293,1.518,1.518,0,0,0-.2-.789A2.244,2.244,0,0,0-8.9-4.137a5.465,5.465,0,0,0-.832-.531q-.48-.254-1.035-.535-.586-.3-1.094-.6a4.739,4.739,0,0,1-.883-.672,2.8,2.8,0,0,1-.59-.832,2.575,2.575,0,0,1-.215-1.09,2.563,2.563,0,0,1,.336-1.332,2.881,2.881,0,0,1,.883-.934,4,4,0,0,1,1.246-.547,5.706,5.706,0,0,1,1.426-.18,5.464,5.464,0,0,1,2.414.4v1.477A4.376,4.376,0,0,0-9.793-10.2a4.189,4.189,0,0,0-.859.09,2.428,2.428,0,0,0-.766.293,1.7,1.7,0,0,0-.547.523,1.389,1.389,0,0,0-.211.781,1.608,1.608,0,0,0,.16.742,1.819,1.819,0,0,0,.473.57,4.708,4.708,0,0,0,.762.5q.449.242,1.035.531.6.3,1.141.625a5.214,5.214,0,0,1,.945.727,3.229,3.229,0,0,1,.645.883,2.482,2.482,0,0,1,.238,1.109,2.813,2.813,0,0,1-.324,1.4,2.661,2.661,0,0,1-.875.934,3.822,3.822,0,0,1-1.27.52,6.953,6.953,0,0,1-1.516.16,6.176,6.176,0,0,1-.656-.043q-.391-.043-.8-.125a6.5,6.5,0,0,1-.77-.2A2.4,2.4,0,0,1-13.566-.453ZM3.785-11.2-.363,0H-1.809L-5.871-11.2H-4.41l3.1,8.883a5.274,5.274,0,0,1,.227.992h.031A4.866,4.866,0,0,1-.793-2.336L2.371-11.2ZM13.379-.766a7.492,7.492,0,0,1-3.75.953A5.124,5.124,0,0,1,5.75-1.359,5.674,5.674,0,0,1,4.27-5.453a5.826,5.826,0,0,1,1.645-4.27,5.606,5.606,0,0,1,4.168-1.668,7.093,7.093,0,0,1,3.07.594v1.453A5.9,5.9,0,0,0,9.934-10.2a4.021,4.021,0,0,0-3.086,1.3,4.743,4.743,0,0,0-1.2,3.359,4.746,4.746,0,0,0,1.117,3.34A3.916,3.916,0,0,0,9.793-.992a4.684,4.684,0,0,0,2.273-.523V-4.656H9.613V-5.844h3.766Z" transform="translate(791 660)" fill="#fff"/>
  </g>
</svg>
