<svg xmlns="http://www.w3.org/2000/svg" width="67.988" height="82.131" viewBox="0 0 67.988 82.131">
  <g id="Group_92" data-name="Group 92" transform="translate(-926.699 -593.848)">
    <g id="Group_71" data-name="Group 71" transform="translate(926.699 593.848)">
      <path id="Path_44" data-name="Path 44" d="M19209.707,731.235h49.6l18.18,16.735v65.3h-67.781Z" transform="translate(-19209.707 -731.135)" fill="#cbc7cc"/>
      <path id="Path_45" data-name="Path 45" d="M0,0,1.085,18.729l17.3-2.343Z" transform="matrix(1, 0.017, -0.017, 1, 49.601, 0)" fill="#9f9f9f"/>
    </g>
    <path id="Path_52" data-name="Path 52" d="M-6.039-10.016H-9.273V0h-1.312V-10.016h-3.227V-11.2h7.773ZM-2.969,0H-4.281V-11.2h1.313ZM5.664-10.016H1.289v3.875H5.336v1.18H1.289V0H-.023V-11.2H5.664Zm7.813,0H9.1v3.875h4.047v1.18H9.1V0H7.789V-11.2h5.688Z" transform="translate(961 660)" fill="#fff"/>
  </g>
</svg>
