<svg width="0" height="0" class="hidden">
  <symbol xmlns="http://www.w3.org/2000/svg" viewBox="0 0 18.5 18" id="new-user">
    <g id="Group_213" transform="translate(-833.5 -802)">
      <path id="ic_person_24px" d="M12,12A4,4,0,1,0,8,8,4,4,0,0,0,12,12Zm0,2c-2.67,0-8,1.34-8,4v2H20V18C20,15.34,14.67,14,12,14Z" transform="translate(829.5 798)" fill="currentColor"></path>
      <g id="Ellipse_32" transform="translate(843 811)" fill="#fff" stroke="currentColor" stroke-width="0.5">
        <circle cx="4.5" cy="4.5" r="4.5" stroke="none"></circle>
        <circle cx="4.5" cy="4.5" r="4.25" fill="none"></circle>
      </g>
      <path id="Path_11" d="M5.723-2.588H3.75V-.62H3.1V-2.588H1.133v-.654H3.1V-5.21H3.75v1.968H5.723Z" transform="translate(844 818)" fill="#888"></path>
    </g>
  </symbol>
  <symbol xmlns="http://www.w3.org/2000/svg" viewBox="0 0 20.002 21.191" id="search-user">
    <g id="Group_210" transform="translate(-1281.16 -980.435)">
      <path id="ic_note_24px" d="M12.874,3.862,9.012,0H1.287A1.291,1.291,0,0,0,0,1.287V9.018A1.286,1.286,0,0,0,1.287,10.3l10.3-.006a1.286,1.286,0,0,0,1.287-1.281ZM8.368.966l3.54,3.54H8.368Z" transform="matrix(-0.017, -1, 1, -0.017, 1281.385, 993.487)" fill="currentColor"></path>
      <g id="Group_173" transform="translate(1285.386 985.349)">
        <g id="Ellipse_1" transform="translate(0 0)" fill="#fff" stroke="#888" stroke-width="2">
          <ellipse cx="6.621" cy="6.621" rx="6.621" ry="6.621" stroke="none"></ellipse>
          <ellipse cx="6.621" cy="6.621" rx="5.621" ry="5.621" fill="none"></ellipse>
        </g>
        <g id="Rectangle_21" transform="translate(9.462 11.005) rotate(-43)" fill="#fff" stroke="currentColor" stroke-width="1">
          <rect width="1.911" height="7.209" rx="0.956" stroke="none"></rect>
          <rect x="0.5" y="0.5" width="0.911" height="6.209" rx="0.456" fill="none"></rect>
        </g>
      </g>
    </g>
  </symbol>
  <symbol xmlns="http://www.w3.org/2000/svg" viewBox="0 0 20 20" id="subscription">
    <g id="Group_98" transform="translate(-639 -803)">
      <g id="Group_28" transform="translate(-66 56)">
        <g id="Rectangle_239" transform="translate(705 747)" fill="transparent" stroke="currentColor" stroke-width="1">
          <rect width="16" height="17" rx="4" stroke="none"></rect>
          <rect x="0.5" y="0.5" width="15" height="16" rx="3.5" fill="none"></rect>
        </g>
        <line id="Line_19" x2="8" transform="translate(709 752.5)" fill="none" stroke="currentColor" stroke-width="1"></line>
        <line id="Line_20" x2="8" transform="translate(709 755.5)" fill="none" stroke="currentColor" stroke-width="1"></line>
        <line id="Line_21" x2="8" transform="translate(709 758.5)" fill="none" stroke="currentColor" stroke-width="1"></line>
      </g>
      <g id="Ellipse_33" transform="translate(648 812)" fill="transparent" stroke="currentColor" stroke-width="1">
        <circle cx="5.5" cy="5.5" r="5.5" stroke="none"></circle>
        <circle cx="5.5" cy="5.5" r="5" fill="#FCFCFC"></circle>
      </g>
      <path id="ic_replay_24px" d="M6.444,2.222V1L4.917,2.528,6.444,4.055V2.833A1.833,1.833,0,1,1,4.611,4.667H4A2.444,2.444,0,1,0,6.444,2.222Z" transform="translate(647.056 813.445)" fill="#888"></path>
    </g>
  </symbol>
  <symbol xmlns="http://www.w3.org/2000/svg" viewBox="0 0 10.742 10.742" id="edit">
    <path id="ic_edit_24px" d="M3,11.5V13.74H5.238l6.6-6.6L9.6,4.9ZM13.568,5.41a.594.594,0,0,0,0-.841l-1.4-1.4a.594.594,0,0,0-.841,0L10.238,4.264,12.476,6.5,13.568,5.41Z" transform="translate(-3 -2.997)" fill="currentColor"></path>
  </symbol>
  <symbol xmlns="http://www.w3.org/2000/svg" viewBox="0 0 26 16" id="group">
    <g id="Group_97" transform="translate(-765.5 -803)">
      <path id="ic_person_24px" d="M12,12A4,4,0,1,0,8,8,4,4,0,0,0,12,12Zm0,2c-2.67,0-8,1.34-8,4v2H20V18C20,15.34,14.67,14,12,14Z" transform="translate(761.5 799)" fill="currentColor"></path>
      <path id="ic_person_24px-2" d="M12,12A4,4,0,1,0,8,8,4,4,0,0,0,12,12Zm0,2c-2.67,0-8,1.34-8,4v2H20V18C20,15.34,14.67,14,12,14Z" transform="translate(771.5 799)" fill="currentColor"></path>
    </g>
  </symbol>
  <symbol xmlns="http://www.w3.org/2000/svg" viewBox="0 0 18.185 12.626" id="settings">
    <g id="Group_120" transform="translate(-494 -614.687)">
      <path id="ic_settings_24px" d="M13.1,8.932a4.353,4.353,0,0,0,0-1.237l1.332-1.042a.318.318,0,0,0,.076-.4L13.248,4.064a.317.317,0,0,0-.385-.139l-1.572.631a4.612,4.612,0,0,0-1.067-.619l-.24-1.673A.308.308,0,0,0,9.675,2H7.15a.308.308,0,0,0-.309.265L6.6,3.938a4.85,4.85,0,0,0-1.067.619L3.962,3.925a.308.308,0,0,0-.385.139L2.314,6.249a.311.311,0,0,0,.076.4L3.722,7.694a5.006,5.006,0,0,0-.044.619,5.006,5.006,0,0,0,.044.619L2.39,9.973a.318.318,0,0,0-.076.4l1.263,2.184a.317.317,0,0,0,.385.139l1.572-.631a4.612,4.612,0,0,0,1.067.619l.24,1.673a.308.308,0,0,0,.309.265H9.675a.308.308,0,0,0,.309-.265l.24-1.673a4.85,4.85,0,0,0,1.067-.619l1.572.631a.308.308,0,0,0,.385-.139l1.263-2.184a.318.318,0,0,0-.076-.4Zm-4.69,1.591a2.209,2.209,0,1,1,2.209-2.209A2.212,2.212,0,0,1,8.413,10.522Z" transform="translate(491.729 612.687)" fill="currentColor"></path>
      <path id="ic_https_24px" d="M10.916,4.458h-.494V3.47a2.47,2.47,0,1,0-4.94,0v.988H4.988A.991.991,0,0,0,4,5.446v4.94a.991.991,0,0,0,.988.988h5.928a.991.991,0,0,0,.988-.988V5.446A.991.991,0,0,0,10.916,4.458ZM7.952,8.9a.988.988,0,1,1,.988-.988A.991.991,0,0,1,7.952,8.9ZM9.484,4.458H6.421V3.47a1.531,1.531,0,0,1,3.063,0Z" transform="translate(499.281 614.813)" fill="#fff"></path>
      <path id="ic_https_24px-2" d="M10.916,4.458h-.494V3.47a2.47,2.47,0,1,0-4.94,0v.988H4.988A.991.991,0,0,0,4,5.446v4.94a.991.991,0,0,0,.988.988h5.928a.991.991,0,0,0,.988-.988V5.446A.991.991,0,0,0,10.916,4.458ZM7.952,8.9a.988.988,0,1,1,.988-.988A.991.991,0,0,1,7.952,8.9ZM9.484,4.458H6.421V3.47a1.531,1.531,0,0,1,3.063,0Z" transform="translate(500.281 614.813)" fill="currentColor"></path>
    </g>
  </symbol>
  <symbol xmlns="http://www.w3.org/2000/svg" viewBox="0 0 8.603 11.06" id="delete">
    <path id="ic_delete_24px" d="M5.614,12.831A1.233,1.233,0,0,0,6.843,14.06h4.916a1.233,1.233,0,0,0,1.229-1.229V5.458H5.614ZM13.6,3.614H11.452L10.837,3H7.765l-.614.614H5V4.843h8.6Z" transform="translate(-5 -3)" fill="currentColor"></path>
  </symbol>
</svg>